<svg xmlns="http://www.w3.org/2000/svg" width="64" height="90" viewBox="0 0 64 90">
  <rect x="1" y="1" width="62" height="88" rx="6" ry="6" fill="#F5F0E8" stroke="#8B7355" stroke-width="1.5"/>
  <rect x="3" y="3" width="58" height="84" rx="4" ry="4" fill="none" stroke="#D4C5A9" stroke-width="0.5"/>
  <circle cx="18" cy="20" r="7" fill="#E63946" stroke="#264653" stroke-width="0.7"/><circle cx="18" cy="20" r="2.8000000000000003" fill="white" opacity="0.35"/><circle cx="32" cy="20" r="7" fill="#457B9D" stroke="#264653" stroke-width="0.7"/><circle cx="32" cy="20" r="2.8000000000000003" fill="white" opacity="0.35"/><circle cx="46" cy="20" r="7" fill="#2A9D8F" stroke="#264653" stroke-width="0.7"/><circle cx="46" cy="20" r="2.8000000000000003" fill="white" opacity="0.35"/><circle cx="18" cy="45" r="7" fill="#E9C46A" stroke="#264653" stroke-width="0.7"/><circle cx="18" cy="45" r="2.8000000000000003" fill="white" opacity="0.35"/><circle cx="32" cy="45" r="7" fill="#F4A261" stroke="#264653" stroke-width="0.7"/><circle cx="32" cy="45" r="2.8000000000000003" fill="white" opacity="0.35"/><circle cx="46" cy="45" r="7" fill="#264653" stroke="#264653" stroke-width="0.7"/><circle cx="46" cy="45" r="2.8000000000000003" fill="white" opacity="0.35"/><circle cx="18" cy="70" r="7" fill="#9B5DE5" stroke="#264653" stroke-width="0.7"/><circle cx="18" cy="70" r="2.8000000000000003" fill="white" opacity="0.35"/><circle cx="32" cy="70" r="7" fill="#E76F51" stroke="#264653" stroke-width="0.7"/><circle cx="32" cy="70" r="2.8000000000000003" fill="white" opacity="0.35"/><circle cx="46" cy="70" r="7" fill="#00BBF9" stroke="#264653" stroke-width="0.7"/><circle cx="46" cy="70" r="2.8000000000000003" fill="white" opacity="0.35"/>
</svg>