<svg xmlns="http://www.w3.org/2000/svg" width="64" height="90" viewBox="0 0 64 90">
  <rect x="1" y="1" width="62" height="88" rx="6" ry="6" fill="#F5F0E8" stroke="#8B7355" stroke-width="1.5"/>
  <rect x="3" y="3" width="58" height="84" rx="4" ry="4" fill="none" stroke="#D4C5A9" stroke-width="0.5"/>
  <rect x="16" y="15" width="8" height="18" rx="2" fill="#2D6A4F" stroke="#1B4332" stroke-width="0.5"/><line x1="20" y1="15" x2="20" y2="33" stroke="#40916C" stroke-width="0.8"/><rect x="28" y="15" width="8" height="18" rx="2" fill="#52B788" stroke="#1B4332" stroke-width="0.5"/><line x1="32" y1="15" x2="32" y2="33" stroke="#40916C" stroke-width="0.8"/><rect x="40" y="15" width="8" height="18" rx="2" fill="#2D6A4F" stroke="#1B4332" stroke-width="0.5"/><line x1="44" y1="15" x2="44" y2="33" stroke="#40916C" stroke-width="0.8"/><rect x="16" y="36" width="8" height="18" rx="2" fill="#52B788" stroke="#1B4332" stroke-width="0.5"/><line x1="20" y1="36" x2="20" y2="54" stroke="#40916C" stroke-width="0.8"/><rect x="28" y="36" width="8" height="18" rx="2" fill="#2D6A4F" stroke="#1B4332" stroke-width="0.5"/><line x1="32" y1="36" x2="32" y2="54" stroke="#40916C" stroke-width="0.8"/><rect x="40" y="36" width="8" height="18" rx="2" fill="#52B788" stroke="#1B4332" stroke-width="0.5"/><line x1="44" y1="36" x2="44" y2="54" stroke="#40916C" stroke-width="0.8"/><rect x="16" y="57" width="8" height="18" rx="2" fill="#2D6A4F" stroke="#1B4332" stroke-width="0.5"/><line x1="20" y1="57" x2="20" y2="75" stroke="#40916C" stroke-width="0.8"/><rect x="28" y="57" width="8" height="18" rx="2" fill="#52B788" stroke="#1B4332" stroke-width="0.5"/><line x1="32" y1="57" x2="32" y2="75" stroke="#40916C" stroke-width="0.8"/>
</svg>